<svg width="1349" height="711" xmlns="http://www.w3.org/2000/svg"><g><path d="M-43.018334379885346,-76.45796636817977L-82.84637060947716,127.5470538251102L-63.68214935064316,69.40028911689296Z" fill="#fffdf9" stroke="#fffdf9"></path><path d="M-43.018334379885346,-76.45796636817977L-63.68214935064316,69.40028911689296L75.37806943291798,35.481893869582564Z" fill="#fffbf6" stroke="#fffbf6"></path><path d="M-43.018334379885346,-76.45796636817977L75.37806943291798,35.481893869582564L79.50989509467036,-23.441027018707246Z" fill="#fff9f2" stroke="#fff9f2"></path><path d="M-43.018334379885346,-76.45796636817977L79.50989509467036,-23.441027018707246L164.8435668204911,-65.2982597402297Z" fill="#fff7ef" stroke="#fff7ef"></path><path d="M-43.018334379885346,-76.45796636817977L164.8435668204911,-65.2982597402297L363.1044627400115,-68.16818318562582Z" fill="#fff3e7" stroke="#fff3e7"></path><path d="M-43.018334379885346,-76.45796636817977L363.1044627400115,-68.16818318562582L545.5503612756729,-73.06566222570837Z" fill="#feebd7" stroke="#feebd7"></path><path d="M-43.018334379885346,-76.45796636817977L545.5503612756729,-73.06566222570837L1063.1602779380046,-77.16507695615292Z" fill="#fed5b3" stroke="#fed5b3"></path><path d="M-43.018334379885346,-76.45796636817977L1063.1602779380046,-77.16507695615292L1430.7032387377694,-82.31347294757143Z" fill="#f9b78c" stroke="#f9b78c"></path><path d="M79.50989509467036,-23.441027018707246L75.37806943291798,35.481893869582564L163.15107533708215,47.25945569574833Z" fill="#fff6eb" stroke="#fff6eb"></path><path d="M79.50989509467036,-23.441027018707246L163.15107533708215,47.25945569574833L164.8435668204911,-65.2982597402297Z" fill="#fff4ea" stroke="#fff4ea"></path><path d="M164.8435668204911,-65.2982597402297L163.15107533708215,47.25945569574833L222.31483758194372,-52.503882655873895Z" fill="#fff2e5" stroke="#fff2e5"></path><path d="M164.8435668204911,-65.2982597402297L222.31483758194372,-52.503882655873895L363.1044627400115,-68.16818318562582Z" fill="#ffeddc" stroke="#ffeddc"></path><path d="M222.31483758194372,-52.503882655873895L163.15107533708215,47.25945569574833L231.08556484570727,80.58233468327671Z" fill="#fff0e0" stroke="#fff0e0"></path><path d="M222.31483758194372,-52.503882655873895L231.08556484570727,80.58233468327671L374.40283939708024,68.96719555836171Z" fill="#feecd7" stroke="#feecd7"></path><path d="M222.31483758194372,-52.503882655873895L374.40283939708024,68.96719555836171L363.1044627400115,-68.16818318562582Z" fill="#fee9d3" stroke="#fee9d3"></path><path d="M363.1044627400115,-68.16818318562582L374.40283939708024,68.96719555836171L477.8512845537625,-22.06987545127049Z" fill="#fee1c6" stroke="#fee1c6"></path><path d="M363.1044627400115,-68.16818318562582L477.8512845537625,-22.06987545127049L545.5503612756729,-73.06566222570837Z" fill="#fedbbc" stroke="#fedbbc"></path><path d="M477.8512845537625,-22.06987545127049L374.40283939708024,68.96719555836171L471.8233840027824,40.55644246051088Z" fill="#feddbe" stroke="#feddbe"></path><path d="M477.8512845537625,-22.06987545127049L471.8233840027824,40.55644246051088L540.6084240414202,78.25634320033714Z" fill="#fed8b5" stroke="#fed8b5"></path><path d="M477.8512845537625,-22.06987545127049L540.6084240414202,78.25634320033714L545.5503612756729,-73.06566222570837Z" fill="#fed5b3" stroke="#fed5b3"></path><path d="M545.5503612756729,-73.06566222570837L540.6084240414202,78.25634320033714L644.442552512046,-46.62486714310944Z" fill="#fed0ab" stroke="#fed0ab"></path><path d="M545.5503612756729,-73.06566222570837L644.442552512046,-46.62486714310944L1063.1602779380046,-77.16507695615292Z" fill="#fcbe94" stroke="#fcbe94"></path><path d="M644.442552512046,-46.62486714310944L540.6084240414202,78.25634320033714L657.5735407928005,57.915751135442406Z" fill="#fecca5" stroke="#fecca5"></path><path d="M644.442552512046,-46.62486714310944L657.5735407928005,57.915751135442406L744.5278867799789,-17.83943765098229Z" fill="#fec59d" stroke="#fec59d"></path><path d="M644.442552512046,-46.62486714310944L744.5278867799789,-17.83943765098229L865.7487864629366,-32.75260767200962Z" fill="#fcbe94" stroke="#fcbe94"></path><path d="M644.442552512046,-46.62486714310944L865.7487864629366,-32.75260767200962L1063.1602779380046,-77.16507695615292Z" fill="#f7b388" stroke="#f7b388"></path><path d="M744.5278867799789,-17.83943765098229L657.5735407928005,57.915751135442406L767.8030840866268,72.96598922461271Z" fill="#fdc196" stroke="#fdc196"></path><path d="M744.5278867799789,-17.83943765098229L767.8030840866268,72.96598922461271L864.137606555596,32.03778286231682Z" fill="#faba8e" stroke="#faba8e"></path><path d="M744.5278867799789,-17.83943765098229L864.137606555596,32.03778286231682L865.7487864629366,-32.75260767200962Z" fill="#f9b68b" stroke="#f9b68b"></path><path d="M865.7487864629366,-32.75260767200962L864.137606555596,32.03778286231682L965.0497827352956,28.716589694377035Z" fill="#f4af86" stroke="#f4af86"></path><path d="M865.7487864629366,-32.75260767200962L965.0497827352956,28.716589694377035L975.9621211211197,-28.953376691788435Z" fill="#f2ab84" stroke="#f2ab84"></path><path d="M865.7487864629366,-32.75260767200962L975.9621211211197,-28.953376691788435L1063.1602779380046,-77.16507695615292Z" fill="#efa883" stroke="#efa883"></path><path d="M975.9621211211197,-28.953376691788435L965.0497827352956,28.716589694377035L1055.3520225710236,47.34976709121838Z" fill="#eda580" stroke="#eda580"></path><path d="M975.9621211211197,-28.953376691788435L1055.3520225710236,47.34976709121838L1063.1602779380046,-77.16507695615292Z" fill="#e8a280" stroke="#e8a280"></path><path d="M1063.1602779380046,-77.16507695615292L1055.3520225710236,47.34976709121838L1140.5357415345497,-23.88631224166602Z" fill="#db9e81" stroke="#db9e81"></path><path d="M1063.1602779380046,-77.16507695615292L1140.5357415345497,-23.88631224166602L1235.1072697597556,-77.82806158764288Z" fill="#ce9981" stroke="#ce9981"></path><path d="M1063.1602779380046,-77.16507695615292L1235.1072697597556,-77.82806158764288L1430.7032387377694,-82.31347294757143Z" fill="#b79182" stroke="#b79182"></path><path d="M1140.5357415345497,-23.88631224166602L1055.3520225710236,47.34976709121838L1158.3952210168354,78.38522345526144Z" fill="#d49b80" stroke="#d49b80"></path><path d="M1140.5357415345497,-23.88631224166602L1158.3952210168354,78.38522345526144L1244.1705433814786,80.23267203010619Z" fill="#c6967f" stroke="#c6967f"></path><path d="M1140.5357415345497,-23.88631224166602L1244.1705433814786,80.23267203010619L1235.1072697597556,-77.82806158764288Z" fill="#c09482" stroke="#c09482"></path><path d="M1235.1072697597556,-77.82806158764288L1244.1705433814786,80.23267203010619L1346.2557309120893,29.238789514638484Z" fill="#b08f82" stroke="#b08f82"></path><path d="M1235.1072697597556,-77.82806158764288L1346.2557309120893,29.238789514638484L1322.2412033122964,-72.71746360231191Z" fill="#aa8d83" stroke="#aa8d83"></path><path d="M1235.1072697597556,-77.82806158764288L1322.2412033122964,-72.71746360231191L1430.7032387377694,-82.31347294757143Z" fill="#a48a83" stroke="#a48a83"></path><path d="M1322.2412033122964,-72.71746360231191L1346.2557309120893,29.238789514638484L1430.7032387377694,-82.31347294757143Z" fill="#9b8783" stroke="#9b8783"></path><path d="M1430.7032387377694,-82.31347294757143L1346.2557309120893,29.238789514638484L1474.252225223463,32.6596730411984Z" fill="#908384" stroke="#908384"></path><path d="M-63.68214935064316,69.40028911689296L-82.84637060947716,127.5470538251102L20.14857439091429,183.6664932849817Z" fill="#fffbe9" stroke="#fffbe9"></path><path d="M-63.68214935064316,69.40028911689296L20.14857439091429,183.6664932849817L75.37806943291798,35.481893869582564Z" fill="#fff9ee" stroke="#fff9ee"></path><path d="M75.37806943291798,35.481893869582564L20.14857439091429,183.6664932849817L168.86548401787877,140.22711037425324Z" fill="#fff5e0" stroke="#fff5e0"></path><path d="M75.37806943291798,35.481893869582564L168.86548401787877,140.22711037425324L163.15107533708215,47.25945569574833Z" fill="#fff4e6" stroke="#fff4e6"></path><path d="M163.15107533708215,47.25945569574833L168.86548401787877,140.22711037425324L231.08556484570727,80.58233468327671Z" fill="#fff2e0" stroke="#fff2e0"></path><path d="M231.08556484570727,80.58233468327671L168.86548401787877,140.22711037425324L248.3416435145773,156.09258718788624Z" fill="#ffeed1" stroke="#ffeed1"></path><path d="M231.08556484570727,80.58233468327671L248.3416435145773,156.09258718788624L318.0846272385679,123.97034055553377Z" fill="#feebcc" stroke="#feebcc"></path><path d="M231.08556484570727,80.58233468327671L318.0846272385679,123.97034055553377L374.40283939708024,68.96719555836171Z" fill="#feead0" stroke="#feead0"></path><path d="M374.40283939708024,68.96719555836171L318.0846272385679,123.97034055553377L455.24991964688525,181.84780669864267Z" fill="#fee2ba" stroke="#fee2ba"></path><path d="M374.40283939708024,68.96719555836171L455.24991964688525,181.84780669864267L471.8233840027824,40.55644246051088Z" fill="#fedeba" stroke="#fedeba"></path><path d="M471.8233840027824,40.55644246051088L455.24991964688525,181.84780669864267L520.0612480985001,138.35783696966246Z" fill="#fed8ab" stroke="#fed8ab"></path><path d="M471.8233840027824,40.55644246051088L520.0612480985001,138.35783696966246L540.6084240414202,78.25634320033714Z" fill="#fed6b0" stroke="#fed6b0"></path><path d="M540.6084240414202,78.25634320033714L520.0612480985001,138.35783696966246L638.8117776811123,178.92258231062442Z" fill="#fecf9b" stroke="#fecf9b"></path><path d="M540.6084240414202,78.25634320033714L638.8117776811123,178.92258231062442L657.5735407928005,57.915751135442406Z" fill="#fecc9d" stroke="#fecc9d"></path><path d="M657.5735407928005,57.915751135442406L638.8117776811123,178.92258231062442L756.0984646575525,154.1992182796821Z" fill="#fec48c" stroke="#fec48c"></path><path d="M657.5735407928005,57.915751135442406L756.0984646575525,154.1992182796821L767.8030840866268,72.96598922461271Z" fill="#fcc191" stroke="#fcc191"></path><path d="M767.8030840866268,72.96598922461271L756.0984646575525,154.1992182796821L865.4191971104592,148.49101405823603Z" fill="#fab87f" stroke="#fab87f"></path><path d="M767.8030840866268,72.96598922461271L865.4191971104592,148.49101405823603L864.137606555596,32.03778286231682Z" fill="#f9b586" stroke="#f9b586"></path><path d="M864.137606555596,32.03778286231682L865.4191971104592,148.49101405823603L965.5903030559421,139.24438870046288Z" fill="#f4ae7c" stroke="#f4ae7c"></path><path d="M864.137606555596,32.03778286231682L965.5903030559421,139.24438870046288L965.0497827352956,28.716589694377035Z" fill="#f2ac81" stroke="#f2ac81"></path><path d="M965.0497827352956,28.716589694377035L965.5903030559421,139.24438870046288L1055.3520225710236,47.34976709121838Z" fill="#eda57e" stroke="#eda57e"></path><path d="M1055.3520225710236,47.34976709121838L965.5903030559421,139.24438870046288L1081.1727412138134,170.43097818735987Z" fill="#e7a173" stroke="#e7a173"></path><path d="M1055.3520225710236,47.34976709121838L1081.1727412138134,170.43097818735987L1122.4359108624049,122.95479448279366Z" fill="#db9d75" stroke="#db9d75"></path><path d="M1055.3520225710236,47.34976709121838L1122.4359108624049,122.95479448279366L1158.3952210168354,78.38522345526144Z" fill="#d59c7d" stroke="#d59c7d"></path><path d="M1158.3952210168354,78.38522345526144L1122.4359108624049,122.95479448279366L1245.1593883661553,178.1394150108099Z" fill="#c79572" stroke="#c79572"></path><path d="M1158.3952210168354,78.38522345526144L1245.1593883661553,178.1394150108099L1244.1705433814786,80.23267203010619Z" fill="#be9277" stroke="#be9277"></path><path d="M1244.1705433814786,80.23267203010619L1245.1593883661553,178.1394150108099L1381.8982990528457,153.29163635149598Z" fill="#ad8b70" stroke="#ad8b70"></path><path d="M1244.1705433814786,80.23267203010619L1381.8982990528457,153.29163635149598L1346.2557309120893,29.238789514638484Z" fill="#a58b7f" stroke="#a58b7f"></path><path d="M1346.2557309120893,29.238789514638484L1381.8982990528457,153.29163635149598L1474.252225223463,32.6596730411984Z" fill="#938580" stroke="#938580"></path><path d="M1474.252225223463,32.6596730411984L1381.8982990528457,153.29163635149598L1472.593388366513,138.42588557163253Z" fill="#8a807a" stroke="#8a807a"></path><path d="M1474.252225223463,32.6596730411984L1472.593388366513,138.42588557163253L1476.417016920168,547.3172339890152Z" fill="#836e4e" stroke="#836e4e"></path><path d="M-82.84637060947716,127.5470538251102L-84.35243065934628,526.3119601341896L-76.92823449615389,226.56129619805142Z" fill="#ffe0b4" stroke="#ffe0b4"></path><path d="M-82.84637060947716,127.5470538251102L-76.92823449615389,226.56129619805142L20.14857439091429,183.6664932849817Z" fill="#fff8da" stroke="#fff8da"></path><path d="M20.14857439091429,183.6664932849817L-76.92823449615389,226.56129619805142L16.50816143490374,247.65555179677904Z" fill="#ffeec8" stroke="#ffeec8"></path><path d="M20.14857439091429,183.6664932849817L16.50816143490374,247.65555179677904L149.135006966535,269.79291927069426Z" fill="#ffe7bc" stroke="#ffe7bc"></path><path d="M20.14857439091429,183.6664932849817L149.135006966535,269.79291927069426L168.86548401787877,140.22711037425324Z" fill="#ffedc5" stroke="#ffedc5"></path><path d="M168.86548401787877,140.22711037425324L149.135006966535,269.79291927069426L231.93628210574389,232.44837696198374Z" fill="#ffe6b8" stroke="#ffe6b8"></path><path d="M168.86548401787877,140.22711037425324L231.93628210574389,232.44837696198374L248.3416435145773,156.09258718788624Z" fill="#ffecc2" stroke="#ffecc2"></path><path d="M248.3416435145773,156.09258718788624L231.93628210574389,232.44837696198374L360.85712890839204,252.45948497671634Z" fill="#fedfac" stroke="#fedfac"></path><path d="M248.3416435145773,156.09258718788624L360.85712890839204,252.45948497671634L318.0846272385679,123.97034055553377Z" fill="#fee6b5" stroke="#fee6b5"></path><path d="M318.0846272385679,123.97034055553377L360.85712890839204,252.45948497671634L455.24991964688525,181.84780669864267Z" fill="#fedea8" stroke="#fedea8"></path><path d="M455.24991964688525,181.84780669864267L360.85712890839204,252.45948497671634L452.46148399310187,219.15525776566938Z" fill="#fed395" stroke="#fed395"></path><path d="M455.24991964688525,181.84780669864267L452.46148399310187,219.15525776566938L569.180610445328,239.95304867159575Z" fill="#fecc8b" stroke="#fecc8b"></path><path d="M455.24991964688525,181.84780669864267L569.180610445328,239.95304867159575L520.0612480985001,138.35783696966246Z" fill="#fed092" stroke="#fed092"></path><path d="M520.0612480985001,138.35783696966246L569.180610445328,239.95304867159575L638.8117776811123,178.92258231062442Z" fill="#feca89" stroke="#feca89"></path><path d="M638.8117776811123,178.92258231062442L569.180610445328,239.95304867159575L672.3886216664687,267.3140052263625Z" fill="#febb72" stroke="#febb72"></path><path d="M638.8117776811123,178.92258231062442L672.3886216664687,267.3140052263625L727.9088631435297,270.62523434404284Z" fill="#feb468" stroke="#feb468"></path><path d="M638.8117776811123,178.92258231062442L727.9088631435297,270.62523434404284L756.0984646575525,154.1992182796821Z" fill="#fdba72" stroke="#fdba72"></path><path d="M756.0984646575525,154.1992182796821L727.9088631435297,270.62523434404284L840.2831171406433,283.7505178176798Z" fill="#fbab5d" stroke="#fbab5d"></path><path d="M756.0984646575525,154.1992182796821L840.2831171406433,283.7505178176798L865.4191971104592,148.49101405823603Z" fill="#f9af66" stroke="#f9af66"></path><path d="M865.4191971104592,148.49101405823603L840.2831171406433,283.7505178176798L976.3752676569857,268.9861344755627Z" fill="#f59f53" stroke="#f59f53"></path><path d="M865.4191971104592,148.49101405823603L976.3752676569857,268.9861344755627L965.5903030559421,139.24438870046288Z" fill="#f2a662" stroke="#f2a662"></path><path d="M965.5903030559421,139.24438870046288L976.3752676569857,268.9861344755627L1073.6913923942484,216.966164491605Z" fill="#ed9a56" stroke="#ed9a56"></path><path d="M965.5903030559421,139.24438870046288L1073.6913923942484,216.966164491605L1081.1727412138134,170.43097818735987Z" fill="#e69e62" stroke="#e69e62"></path><path d="M1081.1727412138134,170.43097818735987L1073.6913923942484,216.966164491605L1133.8778277439997,261.32473789621145Z" fill="#d99054" stroke="#d99054"></path><path d="M1081.1727412138134,170.43097818735987L1133.8778277439997,261.32473789621145L1122.4359108624049,122.95479448279366Z" fill="#d59760" stroke="#d59760"></path><path d="M1122.4359108624049,122.95479448279366L1133.8778277439997,261.32473789621145L1245.1593883661553,178.1394150108099Z" fill="#c9925f" stroke="#c9925f"></path><path d="M1245.1593883661553,178.1394150108099L1133.8778277439997,261.32473789621145L1261.5970095084049,276.2555185519159Z" fill="#be824d" stroke="#be824d"></path><path d="M1245.1593883661553,178.1394150108099L1261.5970095084049,276.2555185519159L1346.8301015510224,228.63658379530534Z" fill="#ae7f51" stroke="#ae7f51"></path><path d="M1245.1593883661553,178.1394150108099L1346.8301015510224,228.63658379530534L1381.8982990528457,153.29163635149598Z" fill="#a58561" stroke="#a58561"></path><path d="M1381.8982990528457,153.29163635149598L1346.8301015510224,228.63658379530534L1456.4470764878206,232.93820573249832Z" fill="#957b5b" stroke="#957b5b"></path><path d="M1381.8982990528457,153.29163635149598L1456.4470764878206,232.93820573249832L1472.593388366513,138.42588557163253Z" fill="#8b7e66" stroke="#8b7e66"></path><path d="M1472.593388366513,138.42588557163253L1456.4470764878206,232.93820573249832L1465.5078518157825,354.58210041513667Z" fill="#856d4d" stroke="#856d4d"></path><path d="M1472.593388366513,138.42588557163253L1465.5078518157825,354.58210041513667L1476.417016920168,547.3172339890152Z" fill="#83562b" stroke="#83562b"></path><path d="M-76.92823449615389,226.56129619805142L-84.35243065934628,526.3119601341896L-33.69912756374106,364.1584533499554Z" fill="#ffce9b" stroke="#ffce9b"></path><path d="M-76.92823449615389,226.56129619805142L-33.69912756374106,364.1584533499554L16.50816143490374,247.65555179677904Z" fill="#ffe1b4" stroke="#ffe1b4"></path><path d="M16.50816143490374,247.65555179677904L-33.69912756374106,364.1584533499554L51.015421180054545,355.4928072844632Z" fill="#ffd6a3" stroke="#ffd6a3"></path><path d="M16.50816143490374,247.65555179677904L51.015421180054545,355.4928072844632L149.135006966535,269.79291927069426Z" fill="#ffdaa8" stroke="#ffdaa8"></path><path d="M149.135006966535,269.79291927069426L51.015421180054545,355.4928072844632L139.89935831166804,372.6884387084283Z" fill="#ffcf97" stroke="#ffcf97"></path><path d="M149.135006966535,269.79291927069426L139.89935831166804,372.6884387084283L221.76383232232183,366.96991158416495Z" fill="#ffcb91" stroke="#ffcb91"></path><path d="M149.135006966535,269.79291927069426L221.76383232232183,366.96991158416495L231.93628210574389,232.44837696198374Z" fill="#ffd49b" stroke="#ffd49b"></path><path d="M231.93628210574389,232.44837696198374L221.76383232232183,366.96991158416495L329.10342453746125,370.8012901665643Z" fill="#fec889" stroke="#fec889"></path><path d="M231.93628210574389,232.44837696198374L329.10342453746125,370.8012901665643L360.85712890839204,252.45948497671634Z" fill="#fece8f" stroke="#fece8f"></path><path d="M360.85712890839204,252.45948497671634L329.10342453746125,370.8012901665643L441.03201892692596,345.68683695513755Z" fill="#febf78" stroke="#febf78"></path><path d="M360.85712890839204,252.45948497671634L441.03201892692596,345.68683695513755L452.46148399310187,219.15525776566938Z" fill="#fec682" stroke="#fec682"></path><path d="M452.46148399310187,219.15525776566938L441.03201892692596,345.68683695513755L545.3902431647293,330.294107706286Z" fill="#feba70" stroke="#feba70"></path><path d="M452.46148399310187,219.15525776566938L545.3902431647293,330.294107706286L569.180610445328,239.95304867159575Z" fill="#febe74" stroke="#febe74"></path><path d="M569.180610445328,239.95304867159575L545.3902431647293,330.294107706286L637.4682949041016,323.44653787789866Z" fill="#feb060" stroke="#feb060"></path><path d="M569.180610445328,239.95304867159575L637.4682949041016,323.44653787789866L672.3886216664687,267.3140052263625Z" fill="#feb061" stroke="#feb061"></path><path d="M672.3886216664687,267.3140052263625L637.4682949041016,323.44653787789866L727.9088631435297,270.62523434404284Z" fill="#fea957" stroke="#fea957"></path><path d="M727.9088631435297,270.62523434404284L637.4682949041016,323.44653787789866L767.4786711554043,329.5013774209656Z" fill="#fda14c" stroke="#fda14c"></path><path d="M727.9088631435297,270.62523434404284L767.4786711554043,329.5013774209656L840.2831171406433,283.7505178176798Z" fill="#fb9d48" stroke="#fb9d48"></path><path d="M840.2831171406433,283.7505178176798L767.4786711554043,329.5013774209656L851.5160412783735,329.61616893997416Z" fill="#f9943d" stroke="#f9943d"></path><path d="M840.2831171406433,283.7505178176798L851.5160412783735,329.61616893997416L976.3752676569857,268.9861344755627Z" fill="#f5923e" stroke="#f5923e"></path><path d="M976.3752676569857,268.9861344755627L851.5160412783735,329.61616893997416L954.9738256796263,368.34548198617995Z" fill="#f28833" stroke="#f28833"></path><path d="M976.3752676569857,268.9861344755627L954.9738256796263,368.34548198617995L1047.1218256023712,334.75473773665726Z" fill="#ee812f" stroke="#ee812f"></path><path d="M976.3752676569857,268.9861344755627L1047.1218256023712,334.75473773665726L1073.6913923942484,216.966164491605Z" fill="#e8893e" stroke="#e8893e"></path><path d="M1073.6913923942484,216.966164491605L1047.1218256023712,334.75473773665726L1133.8778277439997,261.32473789621145Z" fill="#dc853f" stroke="#dc853f"></path><path d="M1133.8778277439997,261.32473789621145L1047.1218256023712,334.75473773665726L1163.739911459852,321.2933130399324Z" fill="#d57b35" stroke="#d57b35"></path><path d="M1133.8778277439997,261.32473789621145L1163.739911459852,321.2933130399324L1261.5970095084049,276.2555185519159Z" fill="#c4793c" stroke="#c4793c"></path><path d="M1261.5970095084049,276.2555185519159L1163.739911459852,321.2933130399324L1267.1824238472618,362.98879811307415Z" fill="#ba6e31" stroke="#ba6e31"></path><path d="M1261.5970095084049,276.2555185519159L1267.1824238472618,362.98879811307415L1329.412883806508,340.29800510499626Z" fill="#ae6930" stroke="#ae6930"></path><path d="M1261.5970095084049,276.2555185519159L1329.412883806508,340.29800510499626L1346.8301015510224,228.63658379530534Z" fill="#a8703e" stroke="#a8703e"></path><path d="M1346.8301015510224,228.63658379530534L1329.412883806508,340.29800510499626L1456.4470764878206,232.93820573249832Z" fill="#996e44" stroke="#996e44"></path><path d="M1456.4470764878206,232.93820573249832L1329.412883806508,340.29800510499626L1465.5078518157825,354.58210041513667Z" fill="#906236" stroke="#906236"></path><path d="M-33.69912756374106,364.1584533499554L-84.35243065934628,526.3119601341896L-44.631795978639275,467.3269594972953Z" fill="#ffba8c" stroke="#ffba8c"></path><path d="M-33.69912756374106,364.1584533499554L-44.631795978639275,467.3269594972953L47.3751494474709,440.15812166268006Z" fill="#ffbf8c" stroke="#ffbf8c"></path><path d="M-33.69912756374106,364.1584533499554L47.3751494474709,440.15812166268006L51.015421180054545,355.4928072844632Z" fill="#ffc691" stroke="#ffc691"></path><path d="M51.015421180054545,355.4928072844632L47.3751494474709,440.15812166268006L139.89935831166804,372.6884387084283Z" fill="#ffc38b" stroke="#ffc38b"></path><path d="M139.89935831166804,372.6884387084283L47.3751494474709,440.15812166268006L133.70081145549193,467.37602514447644Z" fill="#ffb982" stroke="#ffb982"></path><path d="M139.89935831166804,372.6884387084283L133.70081145549193,467.37602514447644L221.76383232232183,366.96991158416495Z" fill="#ffbc82" stroke="#ffbc82"></path><path d="M221.76383232232183,366.96991158416495L133.70081145549193,467.37602514447644L229.14675400359556,481.62138419691473Z" fill="#ffb276" stroke="#ffb276"></path><path d="M221.76383232232183,366.96991158416495L229.14675400359556,481.62138419691473L329.10342453746125,370.8012901665643Z" fill="#feb574" stroke="#feb574"></path><path d="M329.10342453746125,370.8012901665643L229.14675400359556,481.62138419691473L375.03690189449117,442.75218880036846Z" fill="#feab69" stroke="#feab69"></path><path d="M329.10342453746125,370.8012901665643L375.03690189449117,442.75218880036846L441.03201892692596,345.68683695513755Z" fill="#feb067" stroke="#feb067"></path><path d="M441.03201892692596,345.68683695513755L375.03690189449117,442.75218880036846L459.83387381304055,447.40472295321524Z" fill="#fea65b" stroke="#fea65b"></path><path d="M441.03201892692596,345.68683695513755L459.83387381304055,447.40472295321524L524.5629001199268,445.7318373885937Z" fill="#fea053" stroke="#fea053"></path><path d="M441.03201892692596,345.68683695513755L524.5629001199268,445.7318373885937L545.3902431647293,330.294107706286Z" fill="#fea756" stroke="#fea756"></path><path d="M545.3902431647293,330.294107706286L524.5629001199268,445.7318373885937L640.0582655682229,438.0993960611522Z" fill="#fe9946" stroke="#fe9946"></path><path d="M545.3902431647293,330.294107706286L640.0582655682229,438.0993960611522L637.4682949041016,323.44653787789866Z" fill="#fe9f4a" stroke="#fe9f4a"></path><path d="M637.4682949041016,323.44653787789866L640.0582655682229,438.0993960611522L767.4786711554043,329.5013774209656Z" fill="#fe983f" stroke="#fe983f"></path><path d="M767.4786711554043,329.5013774209656L640.0582655682229,438.0993960611522L781.1117181228474,477.6047875289805Z" fill="#fc862f" stroke="#fc862f"></path><path d="M767.4786711554043,329.5013774209656L781.1117181228474,477.6047875289805L863.0882611125708,427.4623849452473Z" fill="#fa7f27" stroke="#fa7f27"></path><path d="M767.4786711554043,329.5013774209656L863.0882611125708,427.4623849452473L851.5160412783735,329.61616893997416Z" fill="#f9892e" stroke="#f9892e"></path><path d="M851.5160412783735,329.61616893997416L863.0882611125708,427.4623849452473L954.9738256796263,368.34548198617995Z" fill="#f57f27" stroke="#f57f27"></path><path d="M954.9738256796263,368.34548198617995L863.0882611125708,427.4623849452473L931.0602531582117,446.15637448616326Z" fill="#f3741d" stroke="#f3741d"></path><path d="M954.9738256796263,368.34548198617995L931.0602531582117,446.15637448616326L1020.3843964240514,462.259873484727Z" fill="#ef6b19" stroke="#ef6b19"></path><path d="M954.9738256796263,368.34548198617995L1020.3843964240514,462.259873484727L1047.1218256023712,334.75473773665726Z" fill="#ed711e" stroke="#ed711e"></path><path d="M1047.1218256023712,334.75473773665726L1020.3843964240514,462.259873484727L1175.3139893477783,452.43002471048385Z" fill="#dc6418" stroke="#dc6418"></path><path d="M1047.1218256023712,334.75473773665726L1175.3139893477783,452.43002471048385L1163.739911459852,321.2933130399324Z" fill="#d26b22" stroke="#d26b22"></path><path d="M1163.739911459852,321.2933130399324L1175.3139893477783,452.43002471048385L1267.1824238472618,362.98879811307415Z" fill="#c16421" stroke="#c16421"></path><path d="M1267.1824238472618,362.98879811307415L1175.3139893477783,452.43002471048385L1219.5153586473316,466.62638801848516Z" fill="#bd5618" stroke="#bd5618"></path><path d="M1267.1824238472618,362.98879811307415L1219.5153586473316,466.62638801848516L1363.3052340801805,466.48746642749757Z" fill="#ae5017" stroke="#ae5017"></path><path d="M1267.1824238472618,362.98879811307415L1363.3052340801805,466.48746642749757L1329.412883806508,340.29800510499626Z" fill="#a65720" stroke="#a65720"></path><path d="M1329.412883806508,340.29800510499626L1363.3052340801805,466.48746642749757L1465.5078518157825,354.58210041513667Z" fill="#975321" stroke="#975321"></path><path d="M1465.5078518157825,354.58210041513667L1363.3052340801805,466.48746642749757L1458.2174829160795,463.7883919873275Z" fill="#8d4519" stroke="#8d4519"></path><path d="M1465.5078518157825,354.58210041513667L1458.2174829160795,463.7883919873275L1476.417016920168,547.3172339890152Z" fill="#843c16" stroke="#843c16"></path><path d="M-44.631795978639275,467.3269594972953L-84.35243065934628,526.3119601341896L67.30282109696418,529.884962788783Z" fill="#ffac89" stroke="#ffac89"></path><path d="M-44.631795978639275,467.3269594972953L67.30282109696418,529.884962788783L47.3751494474709,440.15812166268006Z" fill="#ffb185" stroke="#ffb185"></path><path d="M47.3751494474709,440.15812166268006L67.30282109696418,529.884962788783L133.70081145549193,467.37602514447644Z" fill="#ffae80" stroke="#ffae80"></path><path d="M133.70081145549193,467.37602514447644L67.30282109696418,529.884962788783L158.31018226686865,571.6207276028581Z" fill="#ffa37d" stroke="#ffa37d"></path><path d="M133.70081145549193,467.37602514447644L158.31018226686865,571.6207276028581L229.14675400359556,481.62138419691473Z" fill="#ffa478" stroke="#ffa478"></path><path d="M229.14675400359556,481.62138419691473L158.31018226686865,571.6207276028581L239.2278693895787,550.5706452252343Z" fill="#fe9b73" stroke="#fe9b73"></path><path d="M229.14675400359556,481.62138419691473L239.2278693895787,550.5706452252343L349.19041969813406,535.5248078145087Z" fill="#fe9a6b" stroke="#fe9a6b"></path><path d="M229.14675400359556,481.62138419691473L349.19041969813406,535.5248078145087L375.03690189449117,442.75218880036846Z" fill="#fe9f65" stroke="#fe9f65"></path><path d="M375.03690189449117,442.75218880036846L349.19041969813406,535.5248078145087L466.55603643972427,539.6029613376595Z" fill="#fe9359" stroke="#fe9359"></path><path d="M375.03690189449117,442.75218880036846L466.55603643972427,539.6029613376595L459.83387381304055,447.40472295321524Z" fill="#fe9653" stroke="#fe9653"></path><path d="M459.83387381304055,447.40472295321524L466.55603643972427,539.6029613376595L524.5629001199268,445.7318373885937Z" fill="#fe904b" stroke="#fe904b"></path><path d="M524.5629001199268,445.7318373885937L466.55603643972427,539.6029613376595L539.8604686232284,565.6221936200745Z" fill="#fe8547" stroke="#fe8547"></path><path d="M524.5629001199268,445.7318373885937L539.8604686232284,565.6221936200745L642.8504156181589,532.8334275982343Z" fill="#fe803e" stroke="#fe803e"></path><path d="M524.5629001199268,445.7318373885937L642.8504156181589,532.8334275982343L640.0582655682229,438.0993960611522Z" fill="#fe863a" stroke="#fe863a"></path><path d="M640.0582655682229,438.0993960611522L642.8504156181589,532.8334275982343L739.7787025407888,530.8733724663034Z" fill="#fe7930" stroke="#fe7930"></path><path d="M640.0582655682229,438.0993960611522L739.7787025407888,530.8733724663034L781.1117181228474,477.6047875289805Z" fill="#fd782a" stroke="#fd782a"></path><path d="M781.1117181228474,477.6047875289805L739.7787025407888,530.8733724663034L863.9983769948594,553.4866739064455Z" fill="#fa6821" stroke="#fa6821"></path><path d="M781.1117181228474,477.6047875289805L863.9983769948594,553.4866739064455L863.0882611125708,427.4623849452473Z" fill="#f96b1c" stroke="#f96b1c"></path><path d="M863.0882611125708,427.4623849452473L863.9983769948594,553.4866739064455L931.0602531582117,446.15637448616326Z" fill="#f56819" stroke="#f56819"></path><path d="M931.0602531582117,446.15637448616326L863.9983769948594,553.4866739064455L969.3354231189005,579.5872506382875Z" fill="#f35a17" stroke="#f35a17"></path><path d="M931.0602531582117,446.15637448616326L969.3354231189005,579.5872506382875L1024.5998043357395,518.3068528701551Z" fill="#ef5714" stroke="#ef5714"></path><path d="M931.0602531582117,446.15637448616326L1024.5998043357395,518.3068528701551L1020.3843964240514,462.259873484727Z" fill="#ee5e13" stroke="#ee5e13"></path><path d="M1020.3843964240514,462.259873484727L1024.5998043357395,518.3068528701551L1175.3139893477783,452.43002471048385Z" fill="#de5613" stroke="#de5613"></path><path d="M1175.3139893477783,452.43002471048385L1024.5998043357395,518.3068528701551L1184.8647731496021,557.1770208259113Z" fill="#d24b13" stroke="#d24b13"></path><path d="M1175.3139893477783,452.43002471048385L1184.8647731496021,557.1770208259113L1219.5153586473316,466.62638801848516Z" fill="#c34a14" stroke="#c34a14"></path><path d="M1219.5153586473316,466.62638801848516L1184.8647731496021,557.1770208259113L1228.7020669714548,579.4272330054082Z" fill="#be3f14" stroke="#be3f14"></path><path d="M1219.5153586473316,466.62638801848516L1228.7020669714548,579.4272330054082L1325.6200574757531,537.6358748273924Z" fill="#b43d14" stroke="#b43d14"></path><path d="M1219.5153586473316,466.62638801848516L1325.6200574757531,537.6358748273924L1363.3052340801805,466.48746642749757Z" fill="#aa4115" stroke="#aa4115"></path><path d="M1363.3052340801805,466.48746642749757L1325.6200574757531,537.6358748273924L1476.417016920168,547.3172339890152Z" fill="#963516" stroke="#963516"></path><path d="M1363.3052340801805,466.48746642749757L1476.417016920168,547.3172339890152L1458.2174829160795,463.7883919873275Z" fill="#8c3716" stroke="#8c3716"></path><path d="M-84.35243065934628,526.3119601341896L-31.38972136657685,865.7282439386472L-61.26185826724395,664.701967118308Z" fill="#b48c8c" stroke="#b48c8c"></path><path d="M-84.35243065934628,526.3119601341896L-61.26185826724395,664.701967118308L37.824137650895864,622.4238726776093Z" fill="#dc9a8a" stroke="#dc9a8a"></path><path d="M-84.35243065934628,526.3119601341896L37.824137650895864,622.4238726776093L67.30282109696418,529.884962788783Z" fill="#f2a087" stroke="#f2a087"></path><path d="M67.30282109696418,529.884962788783L37.824137650895864,622.4238726776093L158.31018226686865,571.6207276028581Z" fill="#ea9a80" stroke="#ea9a80"></path><path d="M158.31018226686865,571.6207276028581L37.824137650895864,622.4238726776093L179.16913082124665,660.5926834698766Z" fill="#d5907c" stroke="#d5907c"></path><path d="M158.31018226686865,571.6207276028581L179.16913082124665,660.5926834698766L239.2278693895787,550.5706452252343Z" fill="#e19176" stroke="#e19176"></path><path d="M239.2278693895787,550.5706452252343L179.16913082124665,660.5926834698766L274.62214440107346,674.5157875306904Z" fill="#d08971" stroke="#d08971"></path><path d="M239.2278693895787,550.5706452252343L274.62214440107346,674.5157875306904L336.1775380279869,648.4311129152775Z" fill="#d1866a" stroke="#d1866a"></path><path d="M239.2278693895787,550.5706452252343L336.1775380279869,648.4311129152775L349.19041969813406,535.5248078145087Z" fill="#e88d67" stroke="#e88d67"></path><path d="M349.19041969813406,535.5248078145087L336.1775380279869,648.4311129152775L466.55603643972427,539.6029613376595Z" fill="#ea875b" stroke="#ea875b"></path><path d="M466.55603643972427,539.6029613376595L336.1775380279869,648.4311129152775L484.4479266414419,683.685628187377Z" fill="#d17954" stroke="#d17954"></path><path d="M466.55603643972427,539.6029613376595L484.4479266414419,683.685628187377L518.1122271041386,649.1235454427078Z" fill="#d1734a" stroke="#d1734a"></path><path d="M466.55603643972427,539.6029613376595L518.1122271041386,649.1235454427078L539.8604686232284,565.6221936200745Z" fill="#e57947" stroke="#e57947"></path><path d="M539.8604686232284,565.6221936200745L518.1122271041386,649.1235454427078L656.8608380667865,651.5066539868712Z" fill="#d26b3e" stroke="#d26b3e"></path><path d="M539.8604686232284,565.6221936200745L656.8608380667865,651.5066539868712L642.8504156181589,532.8334275982343Z" fill="#e56e38" stroke="#e56e38"></path><path d="M642.8504156181589,532.8334275982343L656.8608380667865,651.5066539868712L739.7787025407888,530.8733724663034Z" fill="#eb6a2f" stroke="#eb6a2f"></path><path d="M739.7787025407888,530.8733724663034L656.8608380667865,651.5066539868712L771.585850387346,642.7651982894167Z" fill="#d85f2a" stroke="#d85f2a"></path><path d="M739.7787025407888,530.8733724663034L771.585850387346,642.7651982894167L863.9983769948594,553.4866739064455Z" fill="#e55d21" stroke="#e55d21"></path><path d="M863.9983769948594,553.4866739064455L771.585850387346,642.7651982894167L883.0836316058412,658.5235798615031Z" fill="#ce501c" stroke="#ce501c"></path><path d="M863.9983769948594,553.4866739064455L883.0836316058412,658.5235798615031L969.9874072195962,616.7708977032453Z" fill="#ce4c18" stroke="#ce4c18"></path><path d="M863.9983769948594,553.4866739064455L969.9874072195962,616.7708977032453L969.3354231189005,579.5872506382875Z" fill="#d94d16" stroke="#d94d16"></path><path d="M969.3354231189005,579.5872506382875L969.9874072195962,616.7708977032453L1031.1109361844137,650.5061691766605Z" fill="#c54213" stroke="#c54213"></path><path d="M969.3354231189005,579.5872506382875L1031.1109361844137,650.5061691766605L1024.5998043357395,518.3068528701551Z" fill="#d44712" stroke="#d44712"></path><path d="M1024.5998043357395,518.3068528701551L1031.1109361844137,650.5061691766605L1146.3495798688382,658.5052429977804Z" fill="#ba3d13" stroke="#ba3d13"></path><path d="M1024.5998043357395,518.3068528701551L1146.3495798688382,658.5052429977804L1184.8647731496021,557.1770208259113Z" fill="#be3e13" stroke="#be3e13"></path><path d="M1184.8647731496021,557.1770208259113L1146.3495798688382,658.5052429977804L1228.7020669714548,579.4272330054082Z" fill="#a43514" stroke="#a43514"></path><path d="M1228.7020669714548,579.4272330054082L1146.3495798688382,658.5052429977804L1258.426753836684,637.0258333510719Z" fill="#912e14" stroke="#912e14"></path><path d="M1228.7020669714548,579.4272330054082L1258.426753836684,637.0258333510719L1325.6200574757531,537.6358748273924Z" fill="#983115" stroke="#983115"></path><path d="M1325.6200574757531,537.6358748273924L1258.426753836684,637.0258333510719L1370.9754244540818,674.6205197367817Z" fill="#7d2715" stroke="#7d2715"></path><path d="M1325.6200574757531,537.6358748273924L1370.9754244540818,674.6205197367817L1476.417016920168,547.3172339890152Z" fill="#7b2716" stroke="#7b2716"></path><path d="M1476.417016920168,547.3172339890152L1370.9754244540818,674.6205197367817L1457.8931246162392,682.6847583334893Z" fill="#591a16" stroke="#591a16"></path><path d="M1476.417016920168,547.3172339890152L1457.8931246162392,682.6847583334893L1431.88952060882,872.7519521396607Z" fill="#340d16" stroke="#340d16"></path><path d="M-61.26185826724395,664.701967118308L-31.38972136657685,865.7282439386472L-37.349064911250025,726.1519921780564Z" fill="#937f8b" stroke="#937f8b"></path><path d="M-61.26185826724395,664.701967118308L-37.349064911250025,726.1519921780564L22.758757770061493,724.9445617361926Z" fill="#aa8789" stroke="#aa8789"></path><path d="M-61.26185826724395,664.701967118308L22.758757770061493,724.9445617361926L37.824137650895864,622.4238726776093Z" fill="#bb8c87" stroke="#bb8c87"></path><path d="M37.824137650895864,622.4238726776093L22.758757770061493,724.9445617361926L179.16913082124665,660.5926834698766Z" fill="#bc8980" stroke="#bc8980"></path><path d="M179.16913082124665,660.5926834698766L22.758757770061493,724.9445617361926L176.667960959021,780.4310170002282Z" fill="#a17d7c" stroke="#a17d7c"></path><path d="M179.16913082124665,660.5926834698766L176.667960959021,780.4310170002282L245.60296303359792,773.9975684019737Z" fill="#997675" stroke="#997675"></path><path d="M179.16913082124665,660.5926834698766L245.60296303359792,773.9975684019737L274.62214440107346,674.5157875306904Z" fill="#ab7b70" stroke="#ab7b70"></path><path d="M274.62214440107346,674.5157875306904L245.60296303359792,773.9975684019737L382.0172716327943,748.5985538642853Z" fill="#9c7168" stroke="#9c7168"></path><path d="M274.62214440107346,674.5157875306904L382.0172716327943,748.5985538642853L336.1775380279869,648.4311129152775Z" fill="#b07764" stroke="#b07764"></path><path d="M336.1775380279869,648.4311129152775L382.0172716327943,748.5985538642853L484.4479266414419,683.685628187377Z" fill="#af6f58" stroke="#af6f58"></path><path d="M484.4479266414419,683.685628187377L382.0172716327943,748.5985538642853L461.98613533284515,737.1390329161659Z" fill="#a06552" stroke="#a06552"></path><path d="M484.4479266414419,683.685628187377L461.98613533284515,737.1390329161659L540.8401608141139,742.6376459258609Z" fill="#a16049" stroke="#a16049"></path><path d="M484.4479266414419,683.685628187377L540.8401608141139,742.6376459258609L518.1122271041386,649.1235454427078Z" fill="#b06446" stroke="#b06446"></path><path d="M518.1122271041386,649.1235454427078L540.8401608141139,742.6376459258609L656.8608380667865,651.5066539868712Z" fill="#b5603e" stroke="#b5603e"></path><path d="M656.8608380667865,651.5066539868712L540.8401608141139,742.6376459258609L661.9080162537284,780.6873822421767Z" fill="#9f5437" stroke="#9f5437"></path><path d="M656.8608380667865,651.5066539868712L661.9080162537284,780.6873822421767L735.7280728360638,723.2130851713009Z" fill="#a24e2e" stroke="#a24e2e"></path><path d="M656.8608380667865,651.5066539868712L735.7280728360638,723.2130851713009L771.585850387346,642.7651982894167Z" fill="#b8532a" stroke="#b8532a"></path><path d="M771.585850387346,642.7651982894167L735.7280728360638,723.2130851713009L883.0836316058412,658.5235798615031Z" fill="#b44a21" stroke="#b44a21"></path><path d="M883.0836316058412,658.5235798615031L735.7280728360638,723.2130851713009L882.1427200851031,778.005795662757Z" fill="#9c3e1c" stroke="#9c3e1c"></path><path d="M883.0836316058412,658.5235798615031L882.1427200851031,778.005795662757L932.5014158687554,769.585723625496Z" fill="#903518" stroke="#903518"></path><path d="M883.0836316058412,658.5235798615031L932.5014158687554,769.585723625496L969.9874072195962,616.7708977032453Z" fill="#a93c17" stroke="#a93c17"></path><path d="M969.9874072195962,616.7708977032453L932.5014158687554,769.585723625496L1031.1109361844137,650.5061691766605Z" fill="#a73814" stroke="#a73814"></path><path d="M1031.1109361844137,650.5061691766605L932.5014158687554,769.585723625496L1020.8713321760297,759.3330211075954Z" fill="#8e2d13" stroke="#8e2d13"></path><path d="M1031.1109361844137,650.5061691766605L1020.8713321760297,759.3330211075954L1146.3495798688382,658.5052429977804Z" fill="#922e13" stroke="#922e13"></path><path d="M1146.3495798688382,658.5052429977804L1020.8713321760297,759.3330211075954L1157.5164680951275,768.202063117642Z" fill="#752313" stroke="#752313"></path><path d="M1146.3495798688382,658.5052429977804L1157.5164680951275,768.202063117642L1222.463321457617,739.7927084658295Z" fill="#691f14" stroke="#691f14"></path><path d="M1146.3495798688382,658.5052429977804L1222.463321457617,739.7927084658295L1258.426753836684,637.0258333510719Z" fill="#772414" stroke="#772414"></path><path d="M1258.426753836684,637.0258333510719L1222.463321457617,739.7927084658295L1371.7119783093221,732.5842373212799Z" fill="#5a1a15" stroke="#5a1a15"></path><path d="M1258.426753836684,637.0258333510719L1371.7119783093221,732.5842373212799L1370.9754244540818,674.6205197367817Z" fill="#591a15" stroke="#591a15"></path><path d="M1370.9754244540818,674.6205197367817L1371.7119783093221,732.5842373212799L1457.8931246162392,682.6847583334893Z" fill="#431216" stroke="#431216"></path><path d="M1457.8931246162392,682.6847583334893L1371.7119783093221,732.5842373212799L1430.6913624424487,784.4712100084871Z" fill="#2c0a16" stroke="#2c0a16"></path><path d="M1457.8931246162392,682.6847583334893L1430.6913624424487,784.4712100084871L1431.88952060882,872.7519521396607Z" fill="#100216" stroke="#100216"></path><path d="M-37.349064911250025,726.1519921780564L-31.38972136657685,865.7282439386472L22.758757770061493,724.9445617361926Z" fill="#897b89" stroke="#897b89"></path><path d="M22.758757770061493,724.9445617361926L-31.38972136657685,865.7282439386472L42.633406680542976,860.776458485052Z" fill="#807a86" stroke="#807a86"></path><path d="M22.758757770061493,724.9445617361926L42.633406680542976,860.776458485052L176.667960959021,780.4310170002282Z" fill="#817780" stroke="#817780"></path><path d="M176.667960959021,780.4310170002282L42.633406680542976,860.776458485052L161.47404546383768,871.5706609399058Z" fill="#7f757c" stroke="#7f757c"></path><path d="M176.667960959021,780.4310170002282L161.47404546383768,871.5706609399058L252.29738367488608,828.7633123202249Z" fill="#7f7175" stroke="#7f7175"></path><path d="M176.667960959021,780.4310170002282L252.29738367488608,828.7633123202249L245.60296303359792,773.9975684019737Z" fill="#7f7071" stroke="#7f7071"></path><path d="M245.60296303359792,773.9975684019737L252.29738367488608,828.7633123202249L382.0172716327943,748.5985538642853Z" fill="#826b68" stroke="#826b68"></path><path d="M382.0172716327943,748.5985538642853L252.29738367488608,828.7633123202249L370.57325977133587,883.6726083816029Z" fill="#7f6863" stroke="#7f6863"></path><path d="M382.0172716327943,748.5985538642853L370.57325977133587,883.6726083816029L460.0314030935988,829.5838534343056Z" fill="#7f6158" stroke="#7f6158"></path><path d="M382.0172716327943,748.5985538642853L460.0314030935988,829.5838534343056L461.98613533284515,737.1390329161659Z" fill="#885e53" stroke="#885e53"></path><path d="M461.98613533284515,737.1390329161659L460.0314030935988,829.5838534343056L540.8401608141139,742.6376459258609Z" fill="#89594a" stroke="#89594a"></path><path d="M540.8401608141139,742.6376459258609L460.0314030935988,829.5838534343056L582.3006886336952,828.3964167907834Z" fill="#7f5544" stroke="#7f5544"></path><path d="M540.8401608141139,742.6376459258609L582.3006886336952,828.3964167907834L661.9080162537284,780.6873822421767Z" fill="#824f3b" stroke="#824f3b"></path><path d="M661.9080162537284,780.6873822421767L582.3006886336952,828.3964167907834L634.3786256876774,848.2986719883047Z" fill="#7f4b36" stroke="#7f4b36"></path><path d="M661.9080162537284,780.6873822421767L634.3786256876774,848.2986719883047L743.7549202609807,839.4700139132328Z" fill="#7f462f" stroke="#7f462f"></path><path d="M661.9080162537284,780.6873822421767L743.7549202609807,839.4700139132328L735.7280728360638,723.2130851713009Z" fill="#82432b" stroke="#82432b"></path><path d="M735.7280728360638,723.2130851713009L743.7549202609807,839.4700139132328L882.1427200851031,778.005795662757Z" fill="#803b22" stroke="#803b22"></path><path d="M882.1427200851031,778.005795662757L743.7549202609807,839.4700139132328L863.3119581732899,855.540082026273Z" fill="#79361d" stroke="#79361d"></path><path d="M882.1427200851031,778.005795662757L863.3119581732899,855.540082026273L962.1057441760786,855.0540058873594Z" fill="#752f18" stroke="#752f18"></path><path d="M882.1427200851031,778.005795662757L962.1057441760786,855.0540058873594L932.5014158687554,769.585723625496Z" fill="#732d17" stroke="#732d17"></path><path d="M932.5014158687554,769.585723625496L962.1057441760786,855.0540058873594L1020.8713321760297,759.3330211075954Z" fill="#702814" stroke="#702814"></path><path d="M1020.8713321760297,759.3330211075954L962.1057441760786,855.0540058873594L1071.2297667539679,834.8524714703672Z" fill="#6b2412" stroke="#6b2412"></path><path d="M1020.8713321760297,759.3330211075954L1071.2297667539679,834.8524714703672L1157.5164680951275,768.202063117642Z" fill="#5e1f13" stroke="#5e1f13"></path><path d="M1157.5164680951275,768.202063117642L1071.2297667539679,834.8524714703672L1146.0871559707448,882.7934447792359Z" fill="#531b13" stroke="#531b13"></path><path d="M1157.5164680951275,768.202063117642L1146.0871559707448,882.7934447792359L1220.1620606984943,853.2829110580496Z" fill="#481714" stroke="#481714"></path><path d="M1157.5164680951275,768.202063117642L1220.1620606984943,853.2829110580496L1222.463321457617,739.7927084658295Z" fill="#441514" stroke="#441514"></path><path d="M1222.463321457617,739.7927084658295L1220.1620606984943,853.2829110580496L1339.2377682961524,830.6344168377109Z" fill="#341014" stroke="#341014"></path><path d="M1222.463321457617,739.7927084658295L1339.2377682961524,830.6344168377109L1371.7119783093221,732.5842373212799Z" fill="#340c15" stroke="#340c15"></path><path d="M1371.7119783093221,732.5842373212799L1339.2377682961524,830.6344168377109L1430.6913624424487,784.4712100084871Z" fill="#1d0716" stroke="#1d0716"></path><path d="M1430.6913624424487,784.4712100084871L1339.2377682961524,830.6344168377109L1431.88952060882,872.7519521396607Z" fill="#140516" stroke="#140516"></path><path d="M-31.38972136657685,865.7282439386472L370.57325977133587,883.6726083816029L161.47404546383768,871.5706609399058Z" fill="#7f7379" stroke="#7f7379"></path><path d="M-31.38972136657685,865.7282439386472L161.47404546383768,871.5706609399058L42.633406680542976,860.776458485052Z" fill="#807882" stroke="#807882"></path><path d="M161.47404546383768,871.5706609399058L370.57325977133587,883.6726083816029L252.29738367488608,828.7633123202249Z" fill="#7f6d6d" stroke="#7f6d6d"></path><path d="M370.57325977133587,883.6726083816029L1146.0871559707448,882.7934447792359L863.3119581732899,855.540082026273Z" fill="#7b3a21" stroke="#7b3a21"></path><path d="M370.57325977133587,883.6726083816029L863.3119581732899,855.540082026273L634.3786256876774,848.2986719883047Z" fill="#7f4c37" stroke="#7f4c37"></path><path d="M370.57325977133587,883.6726083816029L634.3786256876774,848.2986719883047L582.3006886336952,828.3964167907834Z" fill="#7f5544" stroke="#7f5544"></path><path d="M370.57325977133587,883.6726083816029L582.3006886336952,828.3964167907834L460.0314030935988,829.5838534343056Z" fill="#7f5b4d" stroke="#7f5b4d"></path><path d="M634.3786256876774,848.2986719883047L863.3119581732899,855.540082026273L743.7549202609807,839.4700139132328Z" fill="#7c3f27" stroke="#7c3f27"></path><path d="M863.3119581732899,855.540082026273L1146.0871559707448,882.7934447792359L962.1057441760786,855.0540058873594Z" fill="#6e2613" stroke="#6e2613"></path><path d="M962.1057441760786,855.0540058873594L1146.0871559707448,882.7934447792359L1071.2297667539679,834.8524714703672Z" fill="#622013" stroke="#622013"></path><path d="M1146.0871559707448,882.7934447792359L1431.88952060882,872.7519521396607L1220.1620606984943,853.2829110580496Z" fill="#331015" stroke="#331015"></path><path d="M1220.1620606984943,853.2829110580496L1431.88952060882,872.7519521396607L1339.2377682961524,830.6344168377109Z" fill="#240b15" stroke="#240b15"></path></g><filter id="noise"><feTurbulence type="fractalNoise" in="fillPaint" fill="#F00" baseFrequency="0.7" numOctaves="10" stitchTiles="stitch"></feTurbulence><feComponentTransfer><feFuncR type="linear" slope="2" intercept="-.5"></feFuncR><feFuncG type="linear" slope="2" intercept="-.5"></feFuncG><feFuncB type="linear" slope="2" intercept="-.5"></feFuncB></feComponentTransfer><feColorMatrix type="matrix" values="0.3333 0.3333 0.3333 0 0 
 0.3333 0.3333 0.3333 0 0 
 0.3333 0.3333 0.3333 0 0 
 0 0 0 1 0"></feColorMatrix></filter><rect opacity="0.4" width="100%" height="100%" filter="url(#noise)"></rect></svg>